<svg width="759" height="558" viewBox="0 0 759 558" fill="none" xmlns="http://www.w3.org/2000/svg">
<g opacity="0.3">
<mask id="mask0_93_157" style="mask-type:alpha" maskUnits="userSpaceOnUse" x="-42" y="-83" width="1036" height="642">
<rect x="-41" y="-32.7689" width="49.2311" height="49.2311" stroke="white" stroke-opacity="0.04" stroke-width="0.984621"/>
<rect x="8.23108" y="-32.7689" width="49.2311" height="49.2311" stroke="white" stroke-opacity="0.04" stroke-width="0.984621"/>
<rect x="57.4622" y="-32.7689" width="49.2311" height="49.2311" fill="white" fill-opacity="0.04" stroke="white" stroke-opacity="0.04" stroke-width="0.984621"/>
<rect x="106.693" y="-32.7689" width="49.2311" height="49.2311" stroke="white" stroke-opacity="0.04" stroke-width="0.984621"/>
<rect x="155.924" y="-32.7689" width="49.2311" height="49.2311" stroke="white" stroke-opacity="0.04" stroke-width="0.984621"/>
<rect x="205.155" y="-32.7689" width="49.2311" height="49.2311" stroke="white" stroke-opacity="0.04" stroke-width="0.984621"/>
<rect x="254.386" y="-32.7689" width="49.2311" height="49.2311" stroke="white" stroke-opacity="0.04" stroke-width="0.984621"/>
<rect x="303.618" y="-32.7689" width="49.2311" height="49.2311" stroke="white" stroke-opacity="0.04" stroke-width="0.984621"/>
<rect x="352.849" y="-32.7689" width="49.2311" height="49.2311" stroke="white" stroke-opacity="0.04" stroke-width="0.984621"/>
<rect x="402.08" y="-32.7689" width="49.2311" height="49.2311" fill="white" fill-opacity="0.04" stroke="white" stroke-opacity="0.04" stroke-width="0.984621"/>
<rect x="451.311" y="-32.7689" width="49.2311" height="49.2311" stroke="white" stroke-opacity="0.04" stroke-width="0.984621"/>
<rect x="500.542" y="-32.7689" width="49.2311" height="49.2311" stroke="white" stroke-opacity="0.04" stroke-width="0.984621"/>
<rect x="549.773" y="-32.7689" width="49.2311" height="49.2311" stroke="white" stroke-opacity="0.04" stroke-width="0.984621"/>
<rect x="599.004" y="-32.7689" width="49.2311" height="49.2311" stroke="white" stroke-opacity="0.04" stroke-width="0.984621"/>
<rect x="648.235" y="-32.7689" width="49.2311" height="49.2311" stroke="white" stroke-opacity="0.04" stroke-width="0.984621"/>
<rect x="697.466" y="-32.7689" width="49.2311" height="49.2311" stroke="white" stroke-opacity="0.04" stroke-width="0.984621"/>
<rect x="746.697" y="-32.7689" width="49.2311" height="49.2311" stroke="white" stroke-opacity="0.04" stroke-width="0.984621"/>
<rect x="-41" y="16.4622" width="49.2311" height="49.2311" stroke="white" stroke-opacity="0.04" stroke-width="0.984621"/>
<rect x="8.23108" y="16.4622" width="49.2311" height="49.2311" stroke="white" stroke-opacity="0.04" stroke-width="0.984621"/>
<rect x="57.4621" y="16.4622" width="49.2311" height="49.2311" stroke="white" stroke-opacity="0.04" stroke-width="0.984621"/>
<rect x="106.693" y="16.4622" width="49.2311" height="49.2311" stroke="white" stroke-opacity="0.04" stroke-width="0.984621"/>
<rect x="155.924" y="16.4622" width="49.2311" height="49.2311" stroke="white" stroke-opacity="0.04" stroke-width="0.984621"/>
<rect x="205.155" y="16.4622" width="49.2311" height="49.2311" stroke="white" stroke-opacity="0.04" stroke-width="0.984621"/>
<rect x="254.386" y="16.4622" width="49.2311" height="49.2311" stroke="white" stroke-opacity="0.04" stroke-width="0.984621"/>
<rect x="303.618" y="16.4622" width="49.2311" height="49.2311" stroke="white" stroke-opacity="0.04" stroke-width="0.984621"/>
<rect x="352.849" y="16.4622" width="49.2311" height="49.2311" stroke="white" stroke-opacity="0.04" stroke-width="0.984621"/>
<rect x="402.08" y="16.4622" width="49.2311" height="49.2311" stroke="white" stroke-opacity="0.04" stroke-width="0.984621"/>
<rect x="451.311" y="16.4622" width="49.2311" height="49.2311" stroke="white" stroke-opacity="0.04" stroke-width="0.984621"/>
<rect x="500.542" y="16.4622" width="49.2311" height="49.2311" stroke="white" stroke-opacity="0.04" stroke-width="0.984621"/>
<rect x="549.773" y="16.4622" width="49.2311" height="49.2311" stroke="white" stroke-opacity="0.04" stroke-width="0.984621"/>
<rect x="599.004" y="16.4622" width="49.2311" height="49.2311" stroke="white" stroke-opacity="0.04" stroke-width="0.984621"/>
<rect x="648.235" y="16.4622" width="49.2311" height="49.2311" stroke="white" stroke-opacity="0.04" stroke-width="0.984621"/>
<rect x="697.466" y="16.4622" width="49.2311" height="49.2311" stroke="white" stroke-opacity="0.04" stroke-width="0.984621"/>
<rect x="746.697" y="16.4622" width="49.2311" height="49.2311" fill="white" fill-opacity="0.04" stroke="white" stroke-opacity="0.04" stroke-width="0.984621"/>
<rect x="-41" y="65.6932" width="49.2311" height="49.2311" stroke="white" stroke-opacity="0.04" stroke-width="0.984621"/>
<rect x="8.23108" y="65.6932" width="49.2311" height="49.2311" stroke="white" stroke-opacity="0.04" stroke-width="0.984621"/>
<rect x="57.4621" y="65.6932" width="49.2311" height="49.2311" stroke="white" stroke-opacity="0.04" stroke-width="0.984621"/>
<rect x="106.693" y="65.6932" width="49.2311" height="49.2311" stroke="white" stroke-opacity="0.04" stroke-width="0.984621"/>
<rect x="155.924" y="65.6932" width="49.2311" height="49.2311" stroke="white" stroke-opacity="0.04" stroke-width="0.984621"/>
<rect x="205.155" y="65.6932" width="49.2311" height="49.2311" stroke="white" stroke-opacity="0.04" stroke-width="0.984621"/>
<rect x="254.386" y="65.6932" width="49.2311" height="49.2311" stroke="white" stroke-opacity="0.04" stroke-width="0.984621"/>
<rect x="303.618" y="65.6932" width="49.2311" height="49.2311" stroke="white" stroke-opacity="0.04" stroke-width="0.984621"/>
<rect x="352.849" y="65.6932" width="49.2311" height="49.2311" stroke="white" stroke-opacity="0.04" stroke-width="0.984621"/>
<rect x="402.08" y="65.6932" width="49.2311" height="49.2311" stroke="white" stroke-opacity="0.04" stroke-width="0.984621"/>
<rect x="451.311" y="65.6932" width="49.2311" height="49.2311" stroke="white" stroke-opacity="0.04" stroke-width="0.984621"/>
<rect x="500.542" y="65.6932" width="49.2311" height="49.2311" stroke="white" stroke-opacity="0.04" stroke-width="0.984621"/>
<rect x="549.773" y="65.6932" width="49.2311" height="49.2311" stroke="white" stroke-opacity="0.04" stroke-width="0.984621"/>
<rect x="599.004" y="65.6932" width="49.2311" height="49.2311" stroke="white" stroke-opacity="0.04" stroke-width="0.984621"/>
<rect x="648.235" y="65.6932" width="49.2311" height="49.2311" stroke="white" stroke-opacity="0.04" stroke-width="0.984621"/>
<rect x="697.466" y="65.6932" width="49.2311" height="49.2311" stroke="white" stroke-opacity="0.04" stroke-width="0.984621"/>
<rect x="746.697" y="65.6932" width="49.2311" height="49.2311" stroke="white" stroke-opacity="0.04" stroke-width="0.984621"/>
<rect x="-41" y="114.924" width="49.2311" height="49.2311" stroke="white" stroke-opacity="0.04" stroke-width="0.984621"/>
<rect x="8.23108" y="114.924" width="49.2311" height="49.2311" stroke="white" stroke-opacity="0.04" stroke-width="0.984621"/>
<rect x="57.4621" y="114.924" width="49.2311" height="49.2311" stroke="white" stroke-opacity="0.04" stroke-width="0.984621"/>
<rect x="106.693" y="114.924" width="49.2311" height="49.2311" fill="white" fill-opacity="0.04" stroke="white" stroke-opacity="0.04" stroke-width="0.984621"/>
<rect x="155.924" y="114.924" width="49.2311" height="49.2311" stroke="white" stroke-opacity="0.04" stroke-width="0.984621"/>
<rect x="205.155" y="114.924" width="49.2311" height="49.2311" stroke="white" stroke-opacity="0.04" stroke-width="0.984621"/>
<rect x="254.386" y="114.924" width="49.2311" height="49.2311" stroke="white" stroke-opacity="0.04" stroke-width="0.984621"/>
<rect x="303.618" y="114.924" width="49.2311" height="49.2311" stroke="white" stroke-opacity="0.04" stroke-width="0.984621"/>
<rect x="352.849" y="114.924" width="49.2311" height="49.2311" stroke="white" stroke-opacity="0.04" stroke-width="0.984621"/>
<rect x="402.08" y="114.924" width="49.2311" height="49.2311" stroke="white" stroke-opacity="0.04" stroke-width="0.984621"/>
<rect x="451.311" y="114.924" width="49.2311" height="49.2311" stroke="white" stroke-opacity="0.04" stroke-width="0.984621"/>
<rect x="500.542" y="114.924" width="49.2311" height="49.2311" stroke="white" stroke-opacity="0.04" stroke-width="0.984621"/>
<rect x="549.773" y="114.924" width="49.2311" height="49.2311" fill="white" fill-opacity="0.04" stroke="white" stroke-opacity="0.04" stroke-width="0.984621"/>
<rect x="599.004" y="114.924" width="49.2311" height="49.2311" stroke="white" stroke-opacity="0.04" stroke-width="0.984621"/>
<rect x="648.235" y="114.924" width="49.2311" height="49.2311" stroke="white" stroke-opacity="0.04" stroke-width="0.984621"/>
<rect x="697.466" y="114.924" width="49.2311" height="49.2311" stroke="white" stroke-opacity="0.04" stroke-width="0.984621"/>
<rect x="746.697" y="114.924" width="49.2311" height="49.2311" stroke="white" stroke-opacity="0.04" stroke-width="0.984621"/>
<rect x="-41" y="164.155" width="49.2311" height="49.2311" stroke="white" stroke-opacity="0.04" stroke-width="0.984621"/>
<rect x="8.23108" y="164.155" width="49.2311" height="49.2311" stroke="white" stroke-opacity="0.04" stroke-width="0.984621"/>
<rect x="57.4621" y="164.155" width="49.2311" height="49.2311" stroke="white" stroke-opacity="0.04" stroke-width="0.984621"/>
<rect x="106.693" y="164.155" width="49.2311" height="49.2311" stroke="white" stroke-opacity="0.04" stroke-width="0.984621"/>
<rect x="155.924" y="164.155" width="49.2311" height="49.2311" stroke="white" stroke-opacity="0.04" stroke-width="0.984621"/>
<rect x="205.155" y="164.155" width="49.2311" height="49.2311" stroke="white" stroke-opacity="0.04" stroke-width="0.984621"/>
<rect x="254.386" y="164.155" width="49.2311" height="49.2311" stroke="white" stroke-opacity="0.04" stroke-width="0.984621"/>
<rect x="303.618" y="164.155" width="49.2311" height="49.2311" stroke="white" stroke-opacity="0.04" stroke-width="0.984621"/>
<rect x="352.849" y="164.155" width="49.2311" height="49.2311" stroke="white" stroke-opacity="0.04" stroke-width="0.984621"/>
<rect x="402.08" y="164.155" width="49.2311" height="49.2311" stroke="white" stroke-opacity="0.04" stroke-width="0.984621"/>
<rect x="451.311" y="164.155" width="49.2311" height="49.2311" stroke="white" stroke-opacity="0.04" stroke-width="0.984621"/>
<rect x="500.542" y="164.155" width="49.2311" height="49.2311" stroke="white" stroke-opacity="0.04" stroke-width="0.984621"/>
<rect x="549.773" y="164.155" width="49.2311" height="49.2311" stroke="white" stroke-opacity="0.04" stroke-width="0.984621"/>
<rect x="599.004" y="164.155" width="49.2311" height="49.2311" stroke="white" stroke-opacity="0.04" stroke-width="0.984621"/>
<rect x="648.235" y="164.155" width="49.2311" height="49.2311" stroke="white" stroke-opacity="0.04" stroke-width="0.984621"/>
<rect x="697.466" y="164.155" width="49.2311" height="49.2311" stroke="white" stroke-opacity="0.04" stroke-width="0.984621"/>
<rect x="746.697" y="164.155" width="49.2311" height="49.2311" stroke="white" stroke-opacity="0.04" stroke-width="0.984621"/>
<rect x="-41" y="213.386" width="49.2311" height="49.2311" stroke="white" stroke-opacity="0.04" stroke-width="0.984621"/>
<rect x="8.23108" y="213.386" width="49.2311" height="49.2311" stroke="white" stroke-opacity="0.04" stroke-width="0.984621"/>
<rect x="57.4621" y="213.386" width="49.2311" height="49.2311" stroke="white" stroke-opacity="0.04" stroke-width="0.984621"/>
<rect x="106.693" y="213.386" width="49.2311" height="49.2311" stroke="white" stroke-opacity="0.04" stroke-width="0.984621"/>
<rect x="155.924" y="213.386" width="49.2311" height="49.2311" stroke="white" stroke-opacity="0.04" stroke-width="0.984621"/>
<rect x="205.155" y="213.386" width="49.2311" height="49.2311" stroke="white" stroke-opacity="0.04" stroke-width="0.984621"/>
<rect x="254.386" y="213.386" width="49.2311" height="49.2311" stroke="white" stroke-opacity="0.04" stroke-width="0.984621"/>
<rect x="303.618" y="213.386" width="49.2311" height="49.2311" stroke="white" stroke-opacity="0.04" stroke-width="0.984621"/>
<rect x="352.849" y="213.386" width="49.2311" height="49.2311" stroke="white" stroke-opacity="0.04" stroke-width="0.984621"/>
<rect x="402.08" y="213.386" width="49.2311" height="49.2311" stroke="white" stroke-opacity="0.04" stroke-width="0.984621"/>
<rect x="451.311" y="213.386" width="49.2311" height="49.2311" stroke="white" stroke-opacity="0.04" stroke-width="0.984621"/>
<rect x="500.542" y="213.386" width="49.2311" height="49.2311" stroke="white" stroke-opacity="0.04" stroke-width="0.984621"/>
<rect x="549.773" y="213.386" width="49.2311" height="49.2311" stroke="white" stroke-opacity="0.04" stroke-width="0.984621"/>
<rect x="599.004" y="213.386" width="49.2311" height="49.2311" stroke="white" stroke-opacity="0.04" stroke-width="0.984621"/>
<rect x="648.235" y="213.386" width="49.2311" height="49.2311" stroke="white" stroke-opacity="0.04" stroke-width="0.984621"/>
<rect x="697.466" y="213.386" width="49.2311" height="49.2311" stroke="white" stroke-opacity="0.04" stroke-width="0.984621"/>
<rect x="746.697" y="213.386" width="49.2311" height="49.2311" stroke="white" stroke-opacity="0.04" stroke-width="0.984621"/>
<rect x="-41" y="262.618" width="49.2311" height="49.2311" stroke="white" stroke-opacity="0.04" stroke-width="0.984621"/>
<rect x="8.23108" y="262.618" width="49.2311" height="49.2311" stroke="white" stroke-opacity="0.04" stroke-width="0.984621"/>
<rect x="57.4621" y="262.618" width="49.2311" height="49.2311" stroke="white" stroke-opacity="0.04" stroke-width="0.984621"/>
<rect x="106.693" y="262.618" width="49.2311" height="49.2311" stroke="white" stroke-opacity="0.04" stroke-width="0.984621"/>
<rect x="155.924" y="262.618" width="49.2311" height="49.2311" stroke="white" stroke-opacity="0.04" stroke-width="0.984621"/>
<rect x="205.155" y="262.618" width="49.2311" height="49.2311" stroke="white" stroke-opacity="0.04" stroke-width="0.984621"/>
<rect x="254.386" y="262.618" width="49.2311" height="49.2311" stroke="white" stroke-opacity="0.04" stroke-width="0.984621"/>
<rect x="303.618" y="262.618" width="49.2311" height="49.2311" stroke="white" stroke-opacity="0.04" stroke-width="0.984621"/>
<rect x="352.849" y="262.618" width="49.2311" height="49.2311" fill="white" fill-opacity="0.04" stroke="white" stroke-opacity="0.04" stroke-width="0.984621"/>
<rect x="402.08" y="262.618" width="49.2311" height="49.2311" stroke="white" stroke-opacity="0.04" stroke-width="0.984621"/>
<rect x="451.311" y="262.618" width="49.2311" height="49.2311" stroke="white" stroke-opacity="0.04" stroke-width="0.984621"/>
<rect x="500.542" y="262.618" width="49.2311" height="49.2311" stroke="white" stroke-opacity="0.04" stroke-width="0.984621"/>
<rect x="549.773" y="262.618" width="49.2311" height="49.2311" stroke="white" stroke-opacity="0.04" stroke-width="0.984621"/>
<rect x="599.004" y="262.618" width="49.2311" height="49.2311" stroke="white" stroke-opacity="0.04" stroke-width="0.984621"/>
<rect x="648.235" y="262.618" width="49.2311" height="49.2311" stroke="white" stroke-opacity="0.04" stroke-width="0.984621"/>
<rect x="697.466" y="262.618" width="49.2311" height="49.2311" stroke="white" stroke-opacity="0.04" stroke-width="0.984621"/>
<rect x="746.697" y="262.618" width="49.2311" height="49.2311" stroke="white" stroke-opacity="0.04" stroke-width="0.984621"/>
<rect x="-41" y="311.849" width="49.2311" height="49.2311" stroke="white" stroke-opacity="0.04" stroke-width="0.984621"/>
<rect x="8.23108" y="311.849" width="49.2311" height="49.2311" stroke="white" stroke-opacity="0.04" stroke-width="0.984621"/>
<rect x="57.4621" y="311.849" width="49.2311" height="49.2311" stroke="white" stroke-opacity="0.04" stroke-width="0.984621"/>
<rect x="106.693" y="311.849" width="49.2311" height="49.2311" stroke="white" stroke-opacity="0.04" stroke-width="0.984621"/>
<rect x="155.924" y="311.849" width="49.2311" height="49.2311" fill="white" fill-opacity="0.04" stroke="white" stroke-opacity="0.04" stroke-width="0.984621"/>
<rect x="205.155" y="311.849" width="49.2311" height="49.2311" stroke="white" stroke-opacity="0.04" stroke-width="0.984621"/>
<rect x="254.386" y="311.849" width="49.2311" height="49.2311" stroke="white" stroke-opacity="0.04" stroke-width="0.984621"/>
<rect x="303.618" y="311.849" width="49.2311" height="49.2311" stroke="white" stroke-opacity="0.04" stroke-width="0.984621"/>
<rect x="352.849" y="311.849" width="49.2311" height="49.2311" stroke="white" stroke-opacity="0.04" stroke-width="0.984621"/>
<rect x="402.08" y="311.849" width="49.2311" height="49.2311" stroke="white" stroke-opacity="0.04" stroke-width="0.984621"/>
<rect x="451.311" y="311.849" width="49.2311" height="49.2311" stroke="white" stroke-opacity="0.04" stroke-width="0.984621"/>
<rect x="500.542" y="311.849" width="49.2311" height="49.2311" stroke="white" stroke-opacity="0.04" stroke-width="0.984621"/>
<rect x="549.773" y="311.849" width="49.2311" height="49.2311" stroke="white" stroke-opacity="0.04" stroke-width="0.984621"/>
<rect x="599.004" y="311.849" width="49.2311" height="49.2311" stroke="white" stroke-opacity="0.04" stroke-width="0.984621"/>
<rect x="648.235" y="311.849" width="49.2311" height="49.2311" stroke="white" stroke-opacity="0.04" stroke-width="0.984621"/>
<rect x="697.466" y="311.849" width="49.2311" height="49.2311" stroke="white" stroke-opacity="0.04" stroke-width="0.984621"/>
<rect x="746.697" y="311.848" width="49.2311" height="49.2311" stroke="white" stroke-opacity="0.04" stroke-width="0.984621"/>
<rect x="-41" y="361.08" width="49.2311" height="49.2311" stroke="white" stroke-opacity="0.04" stroke-width="0.984621"/>
<rect x="8.23108" y="361.08" width="49.2311" height="49.2311" stroke="white" stroke-opacity="0.04" stroke-width="0.984621"/>
<rect x="57.4621" y="361.08" width="49.2311" height="49.2311" stroke="white" stroke-opacity="0.04" stroke-width="0.984621"/>
<rect x="106.693" y="361.08" width="49.2311" height="49.2311" stroke="white" stroke-opacity="0.04" stroke-width="0.984621"/>
<rect x="155.924" y="361.08" width="49.2311" height="49.2311" stroke="white" stroke-opacity="0.04" stroke-width="0.984621"/>
<rect x="205.155" y="361.08" width="49.2311" height="49.2311" stroke="white" stroke-opacity="0.04" stroke-width="0.984621"/>
<rect x="254.386" y="361.08" width="49.2311" height="49.2311" stroke="white" stroke-opacity="0.04" stroke-width="0.984621"/>
<rect x="303.618" y="361.08" width="49.2311" height="49.2311" stroke="white" stroke-opacity="0.04" stroke-width="0.984621"/>
<rect x="352.849" y="361.08" width="49.2311" height="49.2311" stroke="white" stroke-opacity="0.04" stroke-width="0.984621"/>
<rect x="402.08" y="361.08" width="49.2311" height="49.2311" stroke="white" stroke-opacity="0.04" stroke-width="0.984621"/>
<rect x="451.311" y="361.08" width="49.2311" height="49.2311" stroke="white" stroke-opacity="0.04" stroke-width="0.984621"/>
<rect x="500.542" y="361.08" width="49.2311" height="49.2311" stroke="white" stroke-opacity="0.04" stroke-width="0.984621"/>
<rect x="549.773" y="361.08" width="49.2311" height="49.2311" stroke="white" stroke-opacity="0.04" stroke-width="0.984621"/>
<rect x="599.004" y="361.08" width="49.2311" height="49.2311" stroke="white" stroke-opacity="0.04" stroke-width="0.984621"/>
<rect x="648.235" y="361.08" width="49.2311" height="49.2311" stroke="white" stroke-opacity="0.04" stroke-width="0.984621"/>
<rect x="697.466" y="361.08" width="49.2311" height="49.2311" stroke="white" stroke-opacity="0.04" stroke-width="0.984621"/>
<rect x="746.697" y="361.08" width="49.2311" height="49.2311" stroke="white" stroke-opacity="0.04" stroke-width="0.984621"/>
<rect x="-41" y="410.311" width="49.2311" height="49.2311" stroke="white" stroke-opacity="0.04" stroke-width="0.984621"/>
<rect x="8.23108" y="410.311" width="49.2311" height="49.2311" stroke="white" stroke-opacity="0.04" stroke-width="0.984621"/>
<rect x="57.4621" y="410.311" width="49.2311" height="49.2311" stroke="white" stroke-opacity="0.04" stroke-width="0.984621"/>
<rect x="106.693" y="410.311" width="49.2311" height="49.2311" stroke="white" stroke-opacity="0.04" stroke-width="0.984621"/>
<rect x="155.924" y="410.311" width="49.2311" height="49.2311" stroke="white" stroke-opacity="0.04" stroke-width="0.984621"/>
<rect x="205.155" y="410.311" width="49.2311" height="49.2311" stroke="white" stroke-opacity="0.04" stroke-width="0.984621"/>
<rect x="254.386" y="410.311" width="49.2311" height="49.2311" stroke="white" stroke-opacity="0.04" stroke-width="0.984621"/>
<rect x="303.618" y="410.311" width="49.2311" height="49.2311" stroke="white" stroke-opacity="0.04" stroke-width="0.984621"/>
<rect x="352.849" y="410.311" width="49.2311" height="49.2311" stroke="white" stroke-opacity="0.04" stroke-width="0.984621"/>
<rect x="402.08" y="410.311" width="49.2311" height="49.2311" stroke="white" stroke-opacity="0.04" stroke-width="0.984621"/>
<rect x="451.311" y="410.311" width="49.2311" height="49.2311" stroke="white" stroke-opacity="0.04" stroke-width="0.984621"/>
<rect x="500.542" y="410.311" width="49.2311" height="49.2311" stroke="white" stroke-opacity="0.04" stroke-width="0.984621"/>
<rect x="549.773" y="410.311" width="49.2311" height="49.2311" stroke="white" stroke-opacity="0.04" stroke-width="0.984621"/>
<rect x="599.004" y="410.311" width="49.2311" height="49.2311" stroke="white" stroke-opacity="0.04" stroke-width="0.984621"/>
<rect x="648.235" y="410.311" width="49.2311" height="49.2311" stroke="white" stroke-opacity="0.04" stroke-width="0.984621"/>
<rect x="697.466" y="410.311" width="49.2311" height="49.2311" stroke="white" stroke-opacity="0.04" stroke-width="0.984621"/>
<rect x="746.697" y="410.311" width="49.2311" height="49.2311" stroke="white" stroke-opacity="0.04" stroke-width="0.984621"/>
<rect x="-41" y="459.542" width="49.2311" height="49.2311" stroke="white" stroke-opacity="0.04" stroke-width="0.984621"/>
<rect x="8.23108" y="459.542" width="49.2311" height="49.2311" stroke="white" stroke-opacity="0.04" stroke-width="0.984621"/>
<rect x="57.4621" y="459.542" width="49.2311" height="49.2311" stroke="white" stroke-opacity="0.04" stroke-width="0.984621"/>
<rect x="106.693" y="459.542" width="49.2311" height="49.2311" stroke="white" stroke-opacity="0.04" stroke-width="0.984621"/>
<rect x="155.924" y="459.542" width="49.2311" height="49.2311" stroke="white" stroke-opacity="0.04" stroke-width="0.984621"/>
<rect x="205.155" y="459.542" width="49.2311" height="49.2311" stroke="white" stroke-opacity="0.04" stroke-width="0.984621"/>
<rect x="254.386" y="459.542" width="49.2311" height="49.2311" stroke="white" stroke-opacity="0.04" stroke-width="0.984621"/>
<rect x="303.618" y="459.542" width="49.2311" height="49.2311" stroke="white" stroke-opacity="0.04" stroke-width="0.984621"/>
<rect x="352.849" y="459.542" width="49.2311" height="49.2311" stroke="white" stroke-opacity="0.04" stroke-width="0.984621"/>
<rect x="402.08" y="459.542" width="49.2311" height="49.2311" stroke="white" stroke-opacity="0.04" stroke-width="0.984621"/>
<rect x="451.311" y="459.542" width="49.2311" height="49.2311" stroke="white" stroke-opacity="0.04" stroke-width="0.984621"/>
<rect x="500.542" y="459.542" width="49.2311" height="49.2311" stroke="white" stroke-opacity="0.04" stroke-width="0.984621"/>
<rect x="549.773" y="459.542" width="49.2311" height="49.2311" stroke="white" stroke-opacity="0.04" stroke-width="0.984621"/>
<rect x="599.004" y="459.542" width="49.2311" height="49.2311" stroke="white" stroke-opacity="0.04" stroke-width="0.984621"/>
<rect x="648.235" y="459.542" width="49.2311" height="49.2311" stroke="white" stroke-opacity="0.04" stroke-width="0.984621"/>
<rect x="697.466" y="459.542" width="49.2311" height="49.2311" stroke="white" stroke-opacity="0.04" stroke-width="0.984621"/>
<rect x="746.697" y="459.542" width="49.2311" height="49.2311" stroke="white" stroke-opacity="0.04" stroke-width="0.984621"/>
<rect x="-41" y="508.773" width="49.2311" height="49.2311" stroke="white" stroke-opacity="0.04" stroke-width="0.984621"/>
<rect x="8.23108" y="508.773" width="49.2311" height="49.2311" stroke="white" stroke-opacity="0.04" stroke-width="0.984621"/>
<rect x="57.4621" y="508.773" width="49.2311" height="49.2311" stroke="white" stroke-opacity="0.04" stroke-width="0.984621"/>
<rect x="106.693" y="508.773" width="49.2311" height="49.2311" stroke="white" stroke-opacity="0.04" stroke-width="0.984621"/>
<rect x="155.924" y="508.773" width="49.2311" height="49.2311" stroke="white" stroke-opacity="0.04" stroke-width="0.984621"/>
<rect x="205.155" y="508.773" width="49.2311" height="49.2311" stroke="white" stroke-opacity="0.04" stroke-width="0.984621"/>
<rect x="254.386" y="508.773" width="49.2311" height="49.2311" stroke="white" stroke-opacity="0.04" stroke-width="0.984621"/>
<rect x="303.618" y="508.773" width="49.2311" height="49.2311" stroke="white" stroke-opacity="0.04" stroke-width="0.984621"/>
<rect x="352.849" y="508.773" width="49.2311" height="49.2311" stroke="white" stroke-opacity="0.04" stroke-width="0.984621"/>
<rect x="402.08" y="508.773" width="49.2311" height="49.2311" stroke="white" stroke-opacity="0.04" stroke-width="0.984621"/>
<rect x="451.311" y="508.773" width="49.2311" height="49.2311" stroke="white" stroke-opacity="0.04" stroke-width="0.984621"/>
<rect x="500.542" y="508.773" width="49.2311" height="49.2311" stroke="white" stroke-opacity="0.04" stroke-width="0.984621"/>
<rect x="549.773" y="508.773" width="49.2311" height="49.2311" stroke="white" stroke-opacity="0.04" stroke-width="0.984621"/>
<rect x="599.004" y="508.773" width="49.2311" height="49.2311" stroke="white" stroke-opacity="0.04" stroke-width="0.984621"/>
<rect x="648.235" y="508.773" width="49.2311" height="49.2311" stroke="white" stroke-opacity="0.04" stroke-width="0.984621"/>
<rect x="697.466" y="508.773" width="49.2311" height="49.2311" stroke="white" stroke-opacity="0.04" stroke-width="0.984621"/>
<rect x="746.697" y="508.773" width="49.2311" height="49.2311" stroke="white" stroke-opacity="0.04" stroke-width="0.984621"/>
</mask>
<g mask="url(#mask0_93_157)">
<ellipse cx="501" cy="213" rx="517" ry="320" fill="url(#paint0_radial_93_157)"/>
</g>
</g>
<defs>
<radialGradient id="paint0_radial_93_157" cx="0" cy="0" r="1" gradientUnits="userSpaceOnUse" gradientTransform="translate(501 213) rotate(90) scale(320 517)">
<stop stop-color="white"/>
<stop offset="1"/>
</radialGradient>
</defs>
</svg>
