<svg width="26" height="25" viewBox="0 0 26 25" fill="none" xmlns="http://www.w3.org/2000/svg">
<path d="M11.0208 2.682C12.3282 2.43912 13.6719 2.43912 14.9792 2.682M14.9792 22.318C13.6719 22.5609 12.3282 22.5609 11.0208 22.318M18.8427 4.221C19.9484 4.94022 20.8997 5.85687 21.6448 6.921M2.77292 14.4C2.51992 13.145 2.51992 11.855 2.77292 10.6M21.624 18.109C20.8748 19.1705 19.9199 20.0837 18.8115 20.799M23.2271 10.6C23.4801 11.855 23.4801 13.145 23.2271 14.4M4.37604 6.891C5.12523 5.82953 6.08007 4.91628 7.18854 4.201M7.15729 20.779C6.05159 20.0598 5.10029 19.1431 4.35521 18.079" stroke="#A1A1AA" stroke-width="2" stroke-linecap="round" stroke-linejoin="round"/>
</svg>
