<svg width="24" height="24" viewBox="0 0 24 24" fill="none" xmlns="http://www.w3.org/2000/svg">
<path d="M10.1 2.182C11.355 1.93912 12.645 1.93912 13.9 2.182M13.9 21.818C12.645 22.0609 11.355 22.0609 10.1 21.818M17.609 3.721C18.6705 4.44022 19.5837 5.35687 20.299 6.421M2.18201 13.9C1.93913 12.645 1.93913 11.355 2.18201 10.1M20.279 17.609C19.5598 18.6705 18.6431 19.5837 17.579 20.299M21.818 10.1C22.0609 11.355 22.0609 12.645 21.818 13.9M3.72101 6.391C4.44023 5.32953 5.35688 4.41628 6.42101 3.701M6.39101 20.279C5.32954 19.5598 4.41629 18.6431 3.70101 17.579" stroke="#A1A1AA" stroke-width="2" stroke-linecap="round" stroke-linejoin="round"/>
</svg>
