<svg width="21" height="20" viewBox="0 0 21 20" fill="none" xmlns="http://www.w3.org/2000/svg">
<path d="M17.5 4.6V17.2C17.5 17.6774 17.2893 18.1352 16.9142 18.4728C16.5391 18.8104 16.0304 19 15.5 19H5.5C4.96957 19 4.46086 18.8104 4.08579 18.4728C3.71071 18.1352 3.5 17.6774 3.5 17.2V4.6M1.5 4.6H19.5M6.5 4.6V2.8C6.5 2.32261 6.71071 1.86477 7.08579 1.52721C7.46086 1.18964 7.96957 1 8.5 1H12.5C13.0304 1 13.5391 1.18964 13.9142 1.52721C14.2893 1.86477 14.5 2.32261 14.5 2.8V4.6" stroke="#CC2F2F" stroke-width="2" stroke-linecap="round" stroke-linejoin="round"/>
</svg>
